<svg width="25" height="24" viewBox="0 0 25 24" fill="none" xmlns="http://www.w3.org/2000/svg">
<path d="M18.6668 7.16C18.6068 7.15 18.5368 7.15 18.4768 7.16C17.0968 7.11 15.9968 5.98 15.9968 4.58C15.9968 3.15 17.1468 2 18.5768 2C20.0068 2 21.1568 3.16 21.1568 4.58C21.1468 5.98 20.0468 7.11 18.6668 7.16Z" stroke="#BABABA" stroke-width="1.5" stroke-linecap="round" stroke-linejoin="round"/>
<path d="M17.6369 14.44C19.0069 14.67 20.5169 14.43 21.5769 13.72C22.9869 12.78 22.9869 11.24 21.5769 10.3C20.5069 9.59004 18.9769 9.35003 17.6069 9.59003" stroke="#BABABA" stroke-width="1.5" stroke-linecap="round" stroke-linejoin="round"/>
<path d="M6.63673 7.16C6.69673 7.15 6.76673 7.15 6.82673 7.16C8.20673 7.11 9.30673 5.98 9.30673 4.58C9.30673 3.15 8.15673 2 6.72673 2C5.29673 2 4.14673 3.16 4.14673 4.58C4.15673 5.98 5.25673 7.11 6.63673 7.16Z" stroke="#BABABA" stroke-width="1.5" stroke-linecap="round" stroke-linejoin="round"/>
<path d="M7.66669 14.44C6.29669 14.67 4.78669 14.43 3.72669 13.72C2.31669 12.78 2.31669 11.24 3.72669 10.3C4.79669 9.59004 6.32669 9.35003 7.69669 9.59003" stroke="#BABABA" stroke-width="1.5" stroke-linecap="round" stroke-linejoin="round"/>
<path d="M12.6668 14.63C12.6068 14.62 12.5368 14.62 12.4768 14.63C11.0968 14.58 9.99683 13.45 9.99683 12.05C9.99683 10.62 11.1468 9.46997 12.5768 9.46997C14.0068 9.46997 15.1568 10.63 15.1568 12.05C15.1468 13.45 14.0468 14.59 12.6668 14.63Z" stroke="#BABABA" stroke-width="1.5" stroke-linecap="round" stroke-linejoin="round"/>
<path d="M9.75672 17.78C8.34672 18.72 8.34672 20.26 9.75672 21.2C11.3567 22.27 13.9767 22.27 15.5767 21.2C16.9867 20.26 16.9867 18.72 15.5767 17.78C13.9867 16.72 11.3567 16.72 9.75672 17.78Z" stroke="#BABABA" stroke-width="1.5" stroke-linecap="round" stroke-linejoin="round"/>
</svg>
